<svg id="Layer_1" enable-background="new 0 0 512.001 512.001" height="512" viewBox="0 0 512.001 512.001" width="512" xmlns="http://www.w3.org/2000/svg"><path d="m502.001 205.363h-16.808c-5.522 0-10-4.477-10-10s4.478-10 10-10h16.808c5.522 0 10 4.477 10 10s-4.478 10-10 10z"/><path d="m462.444 150.445c-2.56 0-5.118-.977-7.071-2.929-3.905-3.905-3.905-10.237 0-14.143l11.886-11.886c3.906-3.904 10.236-3.904 14.143 0 3.905 3.905 3.905 10.237 0 14.143l-11.886 11.886c-1.954 1.952-4.513 2.929-7.072 2.929z"/><path d="m474.33 272.168c-2.56 0-5.118-.977-7.071-2.929l-11.886-11.886c-3.905-3.905-3.905-10.237 0-14.143 3.906-3.904 10.236-3.904 14.142 0l11.886 11.886c3.905 3.905 3.905 10.237 0 14.143-1.953 1.953-4.512 2.929-7.071 2.929z"/><path d="m26.808 205.363h-16.807c-5.523 0-10-4.477-10-10s4.477-10 10-10h16.808c5.523 0 10 4.477 10 10s-4.478 10-10.001 10z"/><path d="m37.672 272.168c-2.559 0-5.118-.977-7.071-2.929-3.905-3.905-3.906-10.236 0-14.142l11.885-11.886c3.905-3.906 10.237-3.905 14.142-.001 3.905 3.905 3.906 10.236 0 14.142l-11.885 11.886c-1.952 1.954-4.512 2.93-7.071 2.93z"/><path d="m49.557 150.445c-2.56 0-5.119-.977-7.071-2.93l-11.885-11.886c-3.905-3.905-3.905-10.236 0-14.142 3.906-3.904 10.238-3.904 14.142.001l11.885 11.886c3.905 3.905 3.905 10.236 0 14.142-1.953 1.952-4.512 2.929-7.071 2.929z"/><path d="m380.158 51.902c-32.439-32.855-75.704-51.282-121.828-51.885-46.626-.641-90.73 17.13-124.257 49.953-33.522 32.818-52.192 76.557-52.57 123.158-.443 54.574 23.946 105.203 66.914 138.904 4.513 3.54 8.817 6.761 12.615 9.602 20.888 15.628 30.358 22.713 31.539 46.574h-10.291c-5.523 0-10 4.478-10 10v60.854c0 40.219 32.709 72.94 72.913 72.94h21.619c40.204 0 72.912-32.721 72.912-72.94v-60.854c0-5.522-4.478-10-10-10h-10.327c.996-23.908 10.211-30.749 30.791-46.025 4.052-3.007 8.645-6.416 13.491-10.223 42.47-33.355 66.828-83.431 66.828-137.386-.002-46.223-17.882-89.79-50.349-122.672zm-113.348 440.099h-21.619c-25.761 0-47.28-18.513-51.966-42.939h125.549c-4.684 24.426-26.203 42.939-51.964 42.939zm52.912-62.939h-127.443v-40.854h127.443zm31.602-132.83c-4.632 3.638-8.915 6.817-13.058 9.892-21.677 16.09-37.589 27.898-38.878 62.085h-33.388v-36.149c0-5.522-4.478-10-10-10-5.523 0-10 4.478-10 10v36.149h-33.421c-1.525-34.126-17.654-46.194-39.567-62.589-3.893-2.912-7.919-5.925-12.253-9.323-38.051-29.846-59.649-74.68-59.258-123.006.335-41.24 16.871-79.961 46.563-109.029 29.696-29.072 68.775-44.755 110.004-44.246 84.055 1.101 152.438 70.436 152.438 154.56-.001 47.774-21.572 92.117-59.182 121.656z"/><path d="m288.108 169.341-32.107 32.108-32.107-32.108c-3.905-3.904-10.237-3.904-14.142 0-3.905 3.905-3.905 10.237.001 14.143l36.249 36.249v21.913c0 5.523 4.477 10 10 10 5.522 0 10-4.477 10-10v-21.913l36.25-36.249c3.905-3.905 3.905-10.237 0-14.143-3.907-3.903-10.237-3.904-14.144 0z"/><path d="m256.001 297.041c-4.229 0-8.082-2.781-9.453-6.769-1.384-4.022.017-8.657 3.426-11.214 3.277-2.457 7.819-2.668 11.303-.514 3.468 2.144 5.318 6.358 4.542 10.362-.899 4.645-5.072 8.135-9.818 8.135z"/></svg>