<svg id="Layer_1" enable-background="new 0 0 512 512" height="512" viewBox="0 0 512 512" width="512" xmlns="http://www.w3.org/2000/svg"><g><path d="m129.6 369.534c9.447 0 17.133-7.686 17.133-17.133s-7.686-17.133-17.133-17.133c-25.989 0-47.133-21.144-47.133-47.133 0-26.284 21.334-47.133 47.133-47.133h80.333c9.496 0 17.133-7.693 17.133-17.133 0-9.447-7.686-17.133-17.133-17.133h-155.842c-3.84 15.793-5.891 32.288-5.891 49.264 0 41.9 12.413 80.896 33.745 113.533h47.655z"/><path d="m494.008 17.905c-22.474-22.477-57.956-19.729-83.764-13.466-21.348 5.18-45.528 14.897-71.326 28.57 12.003 4.456 23.629 9.88 34.776 16.249 15.659-7.148 30.329-12.439 43.624-15.666 33.223-8.062 48.506-1.446 55.476 5.526 15.919 15.917 10.955 55.468-13.278 105.8-27.222 56.538-75.024 120.485-134.568 180.03-59.545 59.544-123.492 107.346-180.03 134.568-50.332 24.233-89.883 29.197-105.8 13.278-6.972-6.97-13.588-22.253-5.526-55.476 3.226-13.294 8.517-27.963 15.665-43.622-6.369-11.147-11.793-22.774-16.249-34.776-13.672 25.798-23.389 49.977-28.569 71.324-6.263 25.807-9.011 61.29 13.466 83.764 12.928 12.93 48.796 36.465 140.028-7.462 59.5-28.647 126.359-78.516 188.228-140.385s111.737-128.728 140.385-188.228c43.927-91.232 20.392-127.099 7.462-140.028z"/><path d="m367.375 367.375c-36.762 36.763-75.345 69.487-113.337 96.4.655.006 1.306.026 1.962.026 114.765 0 207.8-93.035 207.8-207.8 0-.656-.019-1.308-.025-1.963-26.914 37.991-59.638 76.574-96.4 113.337z"/><path d="m257.066 223.867c0 26.279-21.327 47.133-47.133 47.133h-80.333c-9.495 0-17.133 7.695-17.133 17.133 0 9.447 7.686 17.133 17.133 17.133 25.989 0 47.133 21.144 47.133 47.133s-21.144 47.133-47.133 47.133h-23.86c10.338 10.819 21.839 20.514 34.292 28.905 51.569-26.381 109.345-70.345 163.703-124.704 42.483-42.484 78.616-87.054 104.973-129.118h-102.375c-25.989 0-47.133-21.144-47.133-47.133 0-26.279 21.327-47.133 47.133-47.133h60.727c-32.126-20.354-70.214-32.148-111.06-32.148-86.692 0-160.973 53.094-192.131 128.533h146.065c25.988 0 47.132 21.144 47.132 47.133z"/><path d="m289.2 127.483c0 9.447 7.686 17.133 17.133 17.133h119.722c.811-1.536 1.606-3.066 2.386-4.591-7.166-10.632-15.292-20.563-24.249-29.676h-97.859c-9.496.001-17.133 7.694-17.133 17.134z"/></g></svg>